# xmcd
#
# Track frame offsets:
#	150
#	14328
#	27865
#	68932
#	122432
#	162560
#
# Disc length: 2460 seconds
#
# Revision: 1
# Processed by: cddbd v1.5.1PL0 Copyright (c) Steve Scherf et al.
# Submitted via: EasyCDDAExtractor 8.0.2.1
#
DISCID=47099a06
DTITLE=Judas Priest - Hammersmith Odeon London 15-03-80
DYEAR=1980
DGENRE=Hard Rock
TTITLE0=Hell Bent For Leather
TTITLE1=Breaking The Law
TTITLE2=Sinner
TTITLE3=Beyond The Realms Of Death - Grinder
TTITLE4=Victim Of Changes
TTITLE5=Green Manalishi (With The Two-Pronged Crown)
EXTD=
EXTT0=
EXTT1=
EXTT2=
EXTT3=
EXTT4=
EXTT5=
PLAYORDER=
